<svg width="100%" viewBox="0 0 1280 320" role="img" xmlns="http://www.w3.org/2000/svg">
  <title>Campaign Prophet — Bank Marketing Campaign Analytics</title>
  <desc>Project banner showing Campaign Prophet title with tagline and key technology stack</desc>

  <rect width="1280" height="320" fill="#0d1117"/>

  <rect x="0" y="0" width="1280" height="320" fill="#0d1117"/>
  <rect x="0" y="0" width="400" height="320" fill="#111827" opacity="0.6"/>
  <rect x="880" y="0" width="400" height="320" fill="#111827" opacity="0.6"/>

  <circle cx="80" cy="60" r="120" fill="#534AB7" opacity="0.08"/>
  <circle cx="1200" cy="260" r="150" fill="#1D9E75" opacity="0.07"/>
  <circle cx="640" cy="0" r="200" fill="#534AB7" opacity="0.05"/>

  <line x1="0" y1="0" x2="0" y2="320" stroke="#534AB7" stroke-width="3" opacity="0.6"/>
  <line x1="1280" y1="0" x2="1280" y2="320" stroke="#1D9E75" stroke-width="3" opacity="0.6"/>
  <line x1="0" y1="319" x2="1280" y2="319" stroke="#534AB7" stroke-width="1" opacity="0.3"/>

  <text x="640" y="82" text-anchor="middle"
    font-family="'Segoe UI', system-ui, sans-serif"
    font-size="15" font-weight="500" letter-spacing="6"
    fill="#9F99E8" opacity="0.9">CAMPAIGN ANALYTICS · MACHINE LEARNING · ROI OPTIMIZATION</text>

  <text x="640" y="168" text-anchor="middle"
    font-family="'Segoe UI', system-ui, sans-serif"
    font-size="72" font-weight="700" letter-spacing="-1"
    fill="#ffffff">🔮 Campaign Prophet</text>

  <text x="640" y="218" text-anchor="middle"
    font-family="'Segoe UI', system-ui, sans-serif"
    font-size="22" font-weight="400" letter-spacing="0.5"
    fill="#8B8FA8">Turning Bank Marketing Data Into Precision Targeting Intelligence</text>

  <rect x="200" y="254" width="88" height="30" rx="15" fill="#3776AB" opacity="0.9"/>
  <text x="244" y="274" text-anchor="middle"
    font-family="'Segoe UI', system-ui, sans-serif"
    font-size="12" font-weight="600" fill="#ffffff" letter-spacing="0.5">Python</text>

  <rect x="300" y="254" width="110" height="30" rx="15" fill="#F7931E" opacity="0.9"/>
  <text x="355" y="274" text-anchor="middle"
    font-family="'Segoe UI', system-ui, sans-serif"
    font-size="12" font-weight="600" fill="#ffffff" letter-spacing="0.5">scikit-learn</text>

  <rect x="422" y="254" width="100" height="30" rx="15" fill="#189B4E" opacity="0.9"/>
  <text x="472" y="274" text-anchor="middle"
    font-family="'Segoe UI', system-ui, sans-serif"
    font-size="12" font-weight="600" fill="#ffffff" letter-spacing="0.5">XGBoost</text>

  <rect x="534" y="254" width="100" height="30" rx="15" fill="#E25A1C" opacity="0.9"/>
  <text x="584" y="274" text-anchor="middle"
    font-family="'Segoe UI', system-ui, sans-serif"
    font-size="12" font-weight="600" fill="#ffffff" letter-spacing="0.5">PySpark</text>

  <rect x="646" y="254" width="96" height="30" rx="15" fill="#4479A1" opacity="0.9"/>
  <text x="694" y="274" text-anchor="middle"
    font-family="'Segoe UI', system-ui, sans-serif"
    font-size="12" font-weight="600" fill="#ffffff" letter-spacing="0.5">Spark SQL</text>

  <rect x="754" y="254" width="120" height="30" rx="15" fill="#534AB7" opacity="0.9"/>
  <text x="814" y="274" text-anchor="middle"
    font-family="'Segoe UI', system-ui, sans-serif"
    font-size="12" font-weight="600" fill="#ffffff" letter-spacing="0.5">Random Forest</text>

  <rect x="886" y="254" width="88" height="30" rx="15" fill="#534AB7" opacity="0.25"/>
  <rect x="886" y="254" width="88" height="30" rx="15" fill="none" stroke="#534AB7" stroke-width="1" opacity="0.6"/>
  <text x="930" y="274" text-anchor="middle"
    font-family="'Segoe UI', system-ui, sans-serif"
    font-size="12" font-weight="600" fill="#9F99E8" letter-spacing="0.5">Portfolio</text>

  <rect x="986" y="254" width="100" height="30" rx="15" fill="#1D9E75" opacity="0.25"/>
  <rect x="986" y="254" width="100" height="30" rx="15" fill="none" stroke="#1D9E75" stroke-width="1" opacity="0.6"/>
  <text x="1036" y="274" text-anchor="middle"
    font-family="'Segoe UI', system-ui, sans-serif"
    font-size="12" font-weight="600" fill="#5DCAA5" letter-spacing="0.5">In Progress</text>

  <line x1="160" y1="234" x2="1120" y2="234" stroke="#534AB7" stroke-width="0.5" opacity="0.3"/>

  <text x="640" y="308" text-anchor="middle"
    font-family="'Segoe UI', system-ui, sans-serif"
    font-size="12" font-weight="400" letter-spacing="1"
    fill="#4a5568" opacity="0.8">UCI Bank Marketing Dataset · Portuguese Retail Bank · 41,176 Records · 2008–2010</text>
</svg>
